<svg xmlns="http://www.w3.org/2000/svg" xmlns:svg="http://www.w3.org/2000/svg" id="svg3752" width="754.819" height="229.675" version="1.1" viewBox="0 0 754.819 229.675"><title id="title4718">Eldar Logo</title><metadata id="metadata3757"/><g id="layer1" transform="translate(26.684608,17.097137)"><rect style="color:#000;display:inline;overflow:visible;visibility:visible;opacity:1;fill:#1a1a1a;fill-opacity:1;fill-rule:nonzero;stroke:#1a1a1a;stroke-width:9.58928871;stroke-miterlimit:4;stroke-dasharray:none;marker:none;enable-background:accumulate" id="rect3760" width="745.23" height="220.085" x="-21.89" y="-12.302"/><path id="path4145" style="font-style:normal;font-variant:normal;font-weight:300;font-stretch:normal;font-size:125px;line-height:125%;font-family:Ubuntu;-inkscape-font-specification:'Ubuntu Light';letter-spacing:0;word-spacing:0;fill:#e6e6e6;fill-opacity:1;stroke:none;stroke-width:1px;stroke-linecap:butt;stroke-linejoin:miter;stroke-opacity:1" d="m 214.70642,118.28426 0,-86.624996 50,0 0,7.375 -41.5,0 0,30.125 37,0 0,7.25 -37,0 0,34.499996 44.75,0 0,7.375 -53.25,0 z"/><path id="path4147" style="font-style:normal;font-variant:normal;font-weight:300;font-stretch:normal;font-size:125px;line-height:125%;font-family:Ubuntu;-inkscape-font-specification:'Ubuntu Light';letter-spacing:0;word-spacing:0;fill:#e6e6e6;fill-opacity:1;stroke:none;stroke-width:1px;stroke-linecap:butt;stroke-linejoin:miter;stroke-opacity:1" d="m 299.91736,119.40926 q -4.125,-0.125 -7.25,-1.125 -3,-0.875 -5.125,-2.75 -2,-2 -3.125,-5 -1,-3.125 -1,-7.75 l 0,-79.999996 8.125,-1.5 0,81.249996 q 0,3 0.5,4.875 0.625,1.75 1.75,2.875 1.125,1 2.875,1.5 1.875,0.5 4.375,0.875 l -1.125,6.75 z"/><path id="path4149" style="font-style:normal;font-variant:normal;font-weight:300;font-stretch:normal;font-size:125px;line-height:125%;font-family:Ubuntu;-inkscape-font-specification:'Ubuntu Light';letter-spacing:0;word-spacing:0;fill:#e6e6e6;fill-opacity:1;stroke:none;stroke-width:1px;stroke-linecap:butt;stroke-linejoin:miter;stroke-opacity:1" d="m 366.89978,116.28426 q -3.625,1.25 -9.25,2.375 -5.625,1.125 -14.25,1.125 -7.125,0 -13,-2.25 -5.75,-2.375 -10,-6.75 -4.125,-4.375 -6.5,-10.625 -2.25,-6.249996 -2.25,-14.124996 0,-7.375 1.875,-13.5 2,-6.25 5.75,-10.75 3.75,-4.5 9.125,-7 5.5,-2.5 12.5,-2.5 6.375,0 11,1.875 4.75,1.75 6.875,3.375 l 0,-34.75 8.125,-1.5 0,94.999996 z m -8.125,-50.874996 q -1.125,-0.875 -2.875,-1.875 -1.625,-1 -3.875,-1.875 -2.25,-0.875 -4.875,-1.375 -2.625,-0.625 -5.5,-0.625 -6,0 -10.125,2.125 -4,2.125 -6.5,5.75 -2.5,3.5 -3.625,8.375 -1.125,4.75 -1.125,10.125 0,12.75 6.375,19.624996 6.375,6.75 16.875,6.75 6,0 9.625,-0.5 3.75,-0.625 5.625,-1.25 l 0,-45.249996 z"/><path id="path4151" style="font-style:normal;font-variant:normal;font-weight:300;font-stretch:normal;font-size:125px;line-height:125%;font-family:Ubuntu;-inkscape-font-specification:'Ubuntu Light';letter-spacing:0;word-spacing:0;fill:#e6e6e6;fill-opacity:1;stroke:none;stroke-width:1px;stroke-linecap:butt;stroke-linejoin:miter;stroke-opacity:1" d="m 408.89783,112.40926 q 4.75,0 8.25,-0.25 3.625,-0.375 6.125,-0.875 l 0,-22.749996 q -1.375,-0.625 -4.375,-1.25 -3,-0.75 -8.25,-0.75 -3,0 -6.25,0.5 -3.25,0.375 -6,1.875 -2.75,1.375 -4.5,3.875 -1.75,2.5 -1.75,6.625 0,3.624996 1.125,6.124996 1.25,2.5 3.375,4 2.25,1.5 5.25,2.25 3.125,0.625 7,0.625 z m -0.75,-60.249996 q 6.375,0 10.75,1.875 4.5,1.75 7.25,5 2.75,3.125 4,7.5 1.25,4.375 1.25,9.5 l 0,40.749996 q -1.25,0.375 -3.625,0.875 -2.375,0.375 -5.5,0.875 -3.125,0.5 -7,0.75 -3.75,0.375 -7.75,0.375 -5.125,0 -9.5,-1.125 -4.25,-1.125 -7.5,-3.5 -3.125,-2.5 -5,-6.25 -1.75,-3.875 -1.75,-9.374996 0,-5.25 2,-9 2,-3.75 5.625,-6.125 3.625,-2.5 8.625,-3.625 5,-1.125 10.875,-1.125 1.75,0 3.625,0.25 2,0.125 3.75,0.5 1.875,0.25 3.125,0.625 1.375,0.25 1.875,0.5 l 0,-4 q 0,-3.375 -0.5,-6.5 -0.5,-3.25 -2.25,-5.75 -1.625,-2.625 -4.75,-4.125 -3,-1.625 -8,-1.625 -7.125,0 -10.625,1 -3.5,1 -5.125,1.625 l -1.125,-7.125 q 2.125,-1 6.5,-1.875 4.5,-0.875 10.75,-0.875 z"/><path id="path4153" style="font-style:normal;font-variant:normal;font-weight:300;font-stretch:normal;font-size:125px;line-height:125%;font-family:Ubuntu;-inkscape-font-specification:'Ubuntu Light';letter-spacing:0;word-spacing:0;fill:#e6e6e6;fill-opacity:1;stroke:none;stroke-width:1px;stroke-linecap:butt;stroke-linejoin:miter;stroke-opacity:1" d="m 474.24353,52.409264 q 4,0 7.5,0.625 3.625,0.625 5,1.25 l -1.625,7 q -1,-0.5 -4.125,-1 -3,-0.625 -8,-0.625 -5.25,0 -8.5,0.75 -3.125,0.75 -4.125,1.25 l 0,56.624996 -8.125,0 0,-61.624996 q 3.125,-1.375 8.625,-2.75 5.5,-1.5 13.375,-1.5 z"/><g id="g4649" transform="translate(-60.929539,-17.913372)"><rect id="rect3766-3" width="100" height="10" x="85.058" y="162.31" style="color:#000;display:inline;overflow:visible;visibility:visible;opacity:1;fill:#ef2929;fill-opacity:1;fill-rule:nonzero;stroke:none;stroke-width:4.39519405;stroke-miterlimit:4;stroke-dasharray:none;marker:none;enable-background:accumulate"/><rect id="rect3766-3-6" width="100" height="10" x="195.697" y="162.31" style="color:#000;display:inline;overflow:visible;visibility:visible;opacity:1;fill:#fce94f;fill-opacity:1;fill-rule:nonzero;stroke:none;stroke-width:4.39519405;stroke-miterlimit:4;stroke-dasharray:none;marker:none;enable-background:accumulate"/><rect id="rect3766-3-6-7" width="100" height="10" x="306.335" y="162.31" style="color:#000;display:inline;overflow:visible;visibility:visible;opacity:1;fill:#8ae234;fill-opacity:1;fill-rule:nonzero;stroke:none;stroke-width:4.39519405;stroke-miterlimit:4;stroke-dasharray:none;marker:none;enable-background:accumulate"/><rect id="rect3766-3-6-7-5" width="100" height="10" x="416.974" y="162.31" style="color:#000;display:inline;overflow:visible;visibility:visible;opacity:1;fill:#34e2e2;fill-opacity:1;fill-rule:nonzero;stroke:none;stroke-width:4.39519405;stroke-miterlimit:4;stroke-dasharray:none;marker:none;enable-background:accumulate"/><rect id="rect3766-3-6-7-5-3" width="100" height="10" x="527.612" y="162.31" style="color:#000;display:inline;overflow:visible;visibility:visible;opacity:1;fill:#729fcf;fill-opacity:1;fill-rule:nonzero;stroke:none;stroke-width:4.39519405;stroke-miterlimit:4;stroke-dasharray:none;marker:none;enable-background:accumulate"/><rect id="rect3766-3-6-7-5-5" width="100" height="10" x="638.251" y="162.31" style="color:#000;display:inline;overflow:visible;visibility:visible;opacity:1;fill:#ad7fa8;fill-opacity:1;fill-rule:nonzero;stroke:none;stroke-width:4.39519405;stroke-miterlimit:4;stroke-dasharray:none;marker:none;enable-background:accumulate"/></g></g></svg>