<svg xmlns="http://www.w3.org/2000/svg" xmlns:svg="http://www.w3.org/2000/svg" id="svg2218" width="499" height="306" version="1.0"><g id="layer1"><g id="g2151"><rect width="499" height="306" x="0" y="0" style="fill:#fff;stroke:none" id="rect6"/><g id="g8"><rect width="364.595" height="245" x="87" y="23" style="fill:#fff;fill-opacity:1;stroke:#fff;stroke-width:0;stroke-opacity:0" id="rect13"/><g id="g15"><text x="269.298" y="16.1" style="font-size:12.5px;text-anchor:middle;fill:#000;font-family:Helvetica" id="text21">Prize money in the Tour de France</text><g id="g23"><polyline id="polyline25" points="87 268 90.506 258.701 94.011 262.763 97.517 258.701 101.023 262.763 104.529 262.763 108.034 258.701 111.54 258.701 115.046 258.701 118.551 258.701 122.057 258.701 125.563 258.701" style="fill:none;stroke:#00f;stroke-width:.5pt;stroke-dasharray:none"/><polyline id="polyline27" points="143.092 258.701 146.597 238.701 150.103 238.701 153.609 246.083 157.114 246.083 160.62 246.083 164.126 238.701 167.632 238.701 171.137 242.764 174.643 242.764 178.149 246.083 181.654 210.146 185.16 229.402 188.666 226.083 192.172 226.083 195.677 226.083 199.183 204.166 202.689 204.166 206.195 191.547 209.7 204.166 213.206 204.166" style="fill:none;stroke:#00f;stroke-width:.5pt;stroke-dasharray:none"/><polyline id="polyline29" points="241.252 174.867 244.757 171.548 248.263 162.249 251.769 162.249 255.275 162.249 258.78 162.249 262.286 149.631 265.792 149.631 269.298 149.631 272.803 149.631 276.309 149.631 279.815 149.631 283.32 149.631 286.826 149.631 290.332 149.631 293.838 149.631 297.343 149.631 300.849 149.631 304.355 149.631 307.86 149.631 311.366 149.631 314.872 149.631 318.378 149.631 321.883 149.631 325.389 149.631 328.895 149.631 332.4 149.631 335.906 142.249 339.412 142.249 342.918 120.332 346.423 120.332 349.929 120.332 353.435 120.332 356.941 120.332 360.446 115.556 363.952 112.951 367.458 111.776 370.963 111.776 374.469 117.013 377.975 100.333 381.481 100.333 384.986 73.639 388.492 71.034 391.998 65.797 395.503 65.797 399.009 65.797 402.515 65.797 406.021 64.062 409.526 64.062 413.032 64.062 416.538 64.062 420.044 64.062 423.549 64.062 427.055 64.062 430.561 64.062 434.066 64.062 437.572 60.855 441.078 60.855 444.584 60.855 448.089 58.711 451.595 58.711" style="fill:none;stroke:#00f;stroke-width:.5pt;stroke-dasharray:none"/></g><g id="g33"><polyline id="polyline35" points="87 233.464 90.506 232.576 94.011 229.402 97.517 229.402 101.023 229.402 104.529 226.083 108.034 229.402 111.54 229.402 115.046 226.083 118.551 224.626 122.057 220.892 125.563 218.702" style="fill:none;stroke:#007f00;stroke-width:.5pt;stroke-dasharray:none"/><polyline id="polyline37" points="143.092 216.784 146.597 208.055 150.103 208.228 153.609 208.228 157.114 204.166 160.62 204.166 164.126 204.349 167.632 202.597 171.137 204.166 174.643 204.166 178.149 196.785 181.654 171.367 185.16 170.091 188.666 168.742 192.172 167.51 195.677 167.789 199.183 160.646 202.689 162.249 206.195 166.311 209.7 164.167 213.206 164.167" style="fill:none;stroke:#007f00;stroke-width:.5pt;stroke-dasharray:none"/><polyline id="polyline39" points="241.252 134.547 244.757 126.825 248.263 117.013 251.769 114.207 255.275 109.353 258.78 101.589 262.286 97.526 265.792 95.817 269.298 96.67 272.803 96.029 276.309 95.096 279.815 95.096 283.32 95.096 286.826 95.096 290.332 91.033 293.838 88.224 297.343 89.298 300.849 89.525 304.355 94.457 307.86 94.005 311.366 90.52 314.872 88.494 318.378 87.714 321.883 87.547 325.389 92.137 328.895 89.232 332.4 85.979 335.906 82.417 339.412 81.531 342.918 78.333 346.423 75.581 349.929 74.683 353.435 73.113 356.941 71.181 360.446 63.064 363.952 64.002 367.458 63.219 370.963 61.293 374.469 58.397 377.975 51.032 381.481 44.954 384.986 41.573 388.492 40.325 391.998 36.365 395.503 38.38 399.009 36.204 402.515 34.763 406.021 33.8 409.526 33.041 413.032 33.176 416.538 33.179 420.044 33.179 423.549 29.16 427.055 28.52 430.561 27.942 434.066 26.337 437.572 31.396 441.078 25.158 444.584 24.504 448.089 31.293 451.595 23" style="fill:none;stroke:#007f00;stroke-width:.5pt;stroke-dasharray:none"/></g><text x="268.299" y="298.5" style="font-size:12.5px;text-anchor:middle;fill:#000;font-family:Helvetica" id="text47">Year</text><text x="-146.1" y="19.575" transform="matrix(0,-1,1,0,0,0)" style="font-size:12.5px;text-anchor:middle;fill:#000;font-family:Helvetica" id="text53">Prize Money (Euro)</text></g><g id="g55"><polyline id="polyline57" points="87 23 451.595 23" style="fill:none;stroke:#000;stroke-width:.5pt;stroke-dasharray:none"/><polyline id="polyline59" points="87 268 451.595 268" style="fill:none;stroke:#000;stroke-width:.5pt;stroke-dasharray:none"/><polyline id="polyline61" points="146.597 268 146.597 263.01" style="fill:none;stroke:#000;stroke-width:.5pt;stroke-dasharray:none"/><polyline id="polyline63" points="146.597 23 146.597 27.99" style="fill:none;stroke:#000;stroke-width:.5pt;stroke-dasharray:none"/><polyline id="polyline65" points="216.712 268 216.712 263.01" style="fill:none;stroke:#000;stroke-width:.5pt;stroke-dasharray:none"/><polyline id="polyline67" points="216.712 23 216.712 27.99" style="fill:none;stroke:#000;stroke-width:.5pt;stroke-dasharray:none"/><polyline id="polyline69" points="286.826 268 286.826 263.01" style="fill:none;stroke:#000;stroke-width:.5pt;stroke-dasharray:none"/><polyline id="polyline71" points="286.826 23 286.826 27.99" style="fill:none;stroke:#000;stroke-width:.5pt;stroke-dasharray:none"/><polyline id="polyline73" points="356.941 268 356.941 263.01" style="fill:none;stroke:#000;stroke-width:.5pt;stroke-dasharray:none"/><polyline id="polyline75" points="356.941 23 356.941 27.99" style="fill:none;stroke:#000;stroke-width:.5pt;stroke-dasharray:none"/><polyline id="polyline77" points="427.055 268 427.055 263.01" style="fill:none;stroke:#000;stroke-width:.5pt;stroke-dasharray:none"/><polyline id="polyline79" points="427.055 23 427.055 27.99" style="fill:none;stroke:#000;stroke-width:.5pt;stroke-dasharray:none"/><text x="146.597" y="281" style="font-size:12.5px;text-anchor:middle;fill:#000;font-family:Helvetica" id="text85">1900</text><text x="216.712" y="281" style="font-size:12.5px;text-anchor:middle;fill:#000;font-family:Helvetica" id="text91">1920</text><text x="286.826" y="281" style="font-size:12.5px;text-anchor:middle;fill:#000;font-family:Helvetica" id="text97">1940</text><text x="356.941" y="281" style="font-size:12.5px;text-anchor:middle;fill:#000;font-family:Helvetica" id="text103">1960</text><text x="427.055" y="281" style="font-size:12.5px;text-anchor:middle;fill:#000;font-family:Helvetica" id="text109">1980</text><polyline id="polyline111" points="87 268 87 23" style="fill:none;stroke:#000;stroke-width:.5pt;stroke-dasharray:none"/><polyline id="polyline113" points="451.595 268 451.595 23" style="fill:none;stroke:#000;stroke-width:.5pt;stroke-dasharray:none"/><polyline id="polyline115" points="87 253.759 91.99 253.759" style="fill:none;stroke:#000;stroke-width:.5pt;stroke-dasharray:none"/><polyline id="polyline117" points="451.595 253.759 446.605 253.759" style="fill:none;stroke:#000;stroke-width:.5pt;stroke-dasharray:none"/><polyline id="polyline119" points="87 211.842 91.99 211.842" style="fill:none;stroke:#000;stroke-width:.5pt;stroke-dasharray:none"/><polyline id="polyline121" points="451.595 211.842 446.605 211.842" style="fill:none;stroke:#000;stroke-width:.5pt;stroke-dasharray:none"/><polyline id="polyline123" points="87 169.925 91.99 169.925" style="fill:none;stroke:#000;stroke-width:.5pt;stroke-dasharray:none"/><polyline id="polyline125" points="451.595 169.925 446.605 169.925" style="fill:none;stroke:#000;stroke-width:.5pt;stroke-dasharray:none"/><polyline id="polyline127" points="87 128.008 91.99 128.008" style="fill:none;stroke:#000;stroke-width:.5pt;stroke-dasharray:none"/><polyline id="polyline129" points="451.595 128.008 446.605 128.008" style="fill:none;stroke:#000;stroke-width:.5pt;stroke-dasharray:none"/><polyline id="polyline131" points="87 86.091 91.99 86.091" style="fill:none;stroke:#000;stroke-width:.5pt;stroke-dasharray:none"/><polyline id="polyline133" points="451.595 86.091 446.605 86.091" style="fill:none;stroke:#000;stroke-width:.5pt;stroke-dasharray:none"/><polyline id="polyline135" points="87 44.174 91.99 44.174" style="fill:none;stroke:#000;stroke-width:.5pt;stroke-dasharray:none"/><polyline id="polyline137" points="451.595 44.174 446.605 44.174" style="fill:none;stroke:#000;stroke-width:.5pt;stroke-dasharray:none"/><text x="82" y="256.759" style="font-size:12.5px;text-anchor:end;fill:#000;font-family:Helvetica" id="text143">10</text><text x="82" y="214.842" style="font-size:12.5px;text-anchor:end;fill:#000;font-family:Helvetica" id="text149">100</text><text x="82" y="172.925" style="font-size:12.5px;text-anchor:end;fill:#000;font-family:Helvetica" id="text155">1.000</text><text x="82" y="131.008" style="font-size:12.5px;text-anchor:end;fill:#000;font-family:Helvetica" id="text161">10.000</text><text x="82" y="89.091" style="font-size:12.5px;text-anchor:end;fill:#000;font-family:Helvetica" id="text167">100.000</text><text x="82" y="47.174" style="font-size:12.5px;text-anchor:end;fill:#000;font-family:Helvetica" id="text173">1.000.000</text></g></g><g id="g175"><rect width="161" height="42" x="87.339" y="21.554" style="fill:#fff;fill-opacity:1;stroke:#fff;stroke-width:0;stroke-opacity:0" id="rect180"/><g id="g182"><text x="137.839" y="39.054" style="font-size:12.5px;text-anchor:start;fill:#000;font-family:Helvetica" id="text188">Winner</text><polyline id="polyline192" points="95.339 33.221 135.339 33.221" style="fill:none;stroke:#00f;stroke-width:.5pt;stroke-dasharray:none"/><text x="137.839" y="58.054" style="font-size:12.5px;text-anchor:start;fill:#000;font-family:Helvetica" id="text204">Total prize money</text><polyline id="polyline208" points="95.339 51.887 135.339 51.887" style="fill:none;stroke:#007f00;stroke-width:.5pt;stroke-dasharray:none"/></g><g id="g216"><polyline id="polyline218" points="87.339 21.554 248.339 21.554" style="fill:none;stroke:#000;stroke-width:.5pt;stroke-dasharray:none"/><polyline id="polyline220" points="87.339 63.554 248.339 63.554" style="fill:none;stroke:#000;stroke-width:.5pt;stroke-dasharray:none"/><polyline id="polyline222" points="87.339 63.554 87.339 21.554" style="fill:none;stroke:#000;stroke-width:.5pt;stroke-dasharray:none"/><polyline id="polyline224" points="248.339 63.554 248.339 21.554" style="fill:none;stroke:#000;stroke-width:.5pt;stroke-dasharray:none"/></g></g></g></g></svg>